<?xml version="1.0" standalone="no"?>
<!DOCTYPE svg PUBLIC "-//W3C//DTD SVG 1.1//EN" "http://www.w3.org/Graphics/SVG/1.1/DTD/svg11.dtd">
<svg width="960mm" height="960mm" viewBox="-480 -480 960 960" xmlns="http://www.w3.org/2000/svg" version="1.1">
<title>OpenSCAD Model</title>
<path d="
M -0.00500011,-228.332 L -25,-220 L -35,-220 L -35,-260 L -25,-260 L -0.00500011,-251.668
 L -0.00500011,-479.995 L -228.332,-479.995 L -220,-455 L -220,-445 L -260,-445 L -260,-455
 L -251.668,-479.995 L -479.995,-479.995 L -479.995,-251.668 L -455,-260 L -445,-260 L -445,-220
 L -455,-220 L -479.995,-228.332 L -479.995,-0.00500011 L -0.00500011,-0.00500011 z
M -362.5,-370 L -362.5,-380 L -357.5,-380 L -357.5,-370 z
M -122.5,-370 L -122.5,-380 L -117.5,-380 L -117.5,-370 z
M -350,-362.5 L -340,-362.5 L -340,-357.5 L -350,-357.5 z
M -110,-357.5 L -110,-362.5 L -100,-362.5 L -100,-357.5 z
M -380,-357.5 L -380,-362.5 L -370,-362.5 L -370,-357.5 z
M -362.5,-340 L -362.5,-350 L -357.5,-350 L -357.5,-340 z
M -122.5,-340 L -122.5,-350 L -117.5,-350 L -117.5,-340 z
M -122.5,-130 L -122.5,-140 L -117.5,-140 L -117.5,-130 z
M -362.5,-130 L -362.5,-140 L -357.5,-140 L -357.5,-130 z
M -140,-117.5 L -140,-122.5 L -130,-122.5 L -130,-117.5 z
M -380,-117.5 L -380,-122.5 L -370,-122.5 L -370,-117.5 z
M -350,-117.5 L -350,-122.5 L -340,-122.5 L -340,-117.5 z
M -110,-117.5 L -110,-122.5 L -100,-122.5 L -100,-117.5 z
M -362.5,-100 L -362.5,-110 L -357.5,-110 L -357.5,-100 z
M -122.5,-100 L -122.5,-110 L -117.5,-110 L -117.5,-100 z
M -130,-362.5 L -130,-357.5 L -140,-357.5 L -140,-362.5 z
M 220,-25 L 220,-35 L 260,-35 L 260,-25 L 251.668,-0.00500011 L 479.995,-0.00500011
 L 479.995,-479.995 L 0.00500011,-479.995 L 0.00500011,-251.668 L 25,-260 L 35,-260 L 35,-220
 L 25,-220 L 0.00500011,-228.332 L 0.00500011,-0.00500011 L 228.332,-0.00500011 z
M 357.5,-370 L 357.5,-380 L 362.5,-380 L 362.5,-370 z
M 117.5,-370 L 117.5,-380 L 122.5,-380 L 122.5,-370 z
M 370,-357.5 L 370,-362.5 L 380,-362.5 L 380,-357.5 z
M 100,-357.5 L 100,-362.5 L 110,-362.5 L 110,-357.5 z
M 340,-357.5 L 340,-362.5 L 350,-362.5 L 350,-357.5 z
M 130,-357.5 L 130,-362.5 L 140,-362.5 L 140,-357.5 z
M 117.5,-340 L 117.5,-350 L 122.5,-350 L 122.5,-340 z
M 357.5,-340 L 357.5,-350 L 362.5,-350 L 362.5,-340 z
M 357.5,-130 L 357.5,-140 L 362.5,-140 L 362.5,-130 z
M 117.5,-130 L 117.5,-140 L 122.5,-140 L 122.5,-130 z
M 340,-117.5 L 340,-122.5 L 350,-122.5 L 350,-117.5 z
M 100,-117.5 L 100,-122.5 L 110,-122.5 L 110,-117.5 z
M 130,-117.5 L 130,-122.5 L 140,-122.5 L 140,-117.5 z
M 370,-117.5 L 370,-122.5 L 380,-122.5 L 380,-117.5 z
M 357.5,-100 L 357.5,-110 L 362.5,-110 L 362.5,-100 z
M 117.5,-100 L 117.5,-110 L 122.5,-110 L 122.5,-100 z
M 220,455 L 220,445 L 260,445 L 260,455 L 251.668,479.995 L 479.995,479.995
 L 479.995,251.668 L 455,260 L 445,260 L 445,220 L 455,220 L 479.995,228.332
 L 479.995,0.00500011 L 251.668,0.00500011 L 260,25 L 260,35 L 220,35 L 220,25
 L 228.332,0.00500011 L 0.00500011,0.00500011 L 0.00500011,228.332 L 25,220 L 35,220 L 35,260
 L 25,260 L 0.00500011,251.668 L 0.00500011,479.995 L 228.332,479.995 z
M 357.5,110 L 357.5,100 L 362.5,100 L 362.5,110 z
M 117.5,110 L 117.5,100 L 122.5,100 L 122.5,110 z
M 100,122.5 L 100,117.5 L 110,117.5 L 110,122.5 z
M 370,122.5 L 370,117.5 L 380,117.5 L 380,122.5 z
M 130,122.5 L 130,117.5 L 140,117.5 L 140,122.5 z
M 340,122.5 L 340,117.5 L 350,117.5 L 350,122.5 z
M 357.5,140 L 357.5,130 L 362.5,130 L 362.5,140 z
M 117.5,140 L 117.5,130 L 122.5,130 L 122.5,140 z
M 357.5,350 L 357.5,340 L 362.5,340 L 362.5,350 z
M 117.5,350 L 117.5,340 L 122.5,340 L 122.5,350 z
M 340,362.5 L 340,357.5 L 350,357.5 L 350,362.5 z
M 370,362.5 L 370,357.5 L 380,357.5 L 380,362.5 z
M 100,362.5 L 100,357.5 L 110,357.5 L 110,362.5 z
M 130,362.5 L 130,357.5 L 140,357.5 L 140,362.5 z
M 117.5,380 L 117.5,370 L 122.5,370 L 122.5,380 z
M 357.5,380 L 357.5,370 L 362.5,370 L 362.5,380 z
M -351.005,208 L -350.989,207.686 L -350.939,207.376 L -350.858,207.073 L -350.746,206.78 L -350.603,206.5
 L -350.432,206.237 L -350.234,205.993 L -350.012,205.771 L -349.768,205.573 L -349.505,205.402 L -349.225,205.259
 L -348.932,205.147 L -348.629,205.066 L -348.319,205.016 L -348.005,205 L -343.995,205 L -343.681,205.016
 L -343.371,205.066 L -343.068,205.147 L -342.775,205.259 L -342.495,205.402 L -342.232,205.573 L -341.988,205.771
 L -341.766,205.993 L -341.568,206.237 L -341.397,206.5 L -341.254,206.78 L -341.142,207.073 L -341.061,207.376
 L -341.011,207.686 L -340.995,208 L -340.995,211 L -141.005,211 L -141.005,208 L -140.989,207.686
 L -140.939,207.376 L -140.858,207.073 L -140.746,206.78 L -140.603,206.5 L -140.432,206.237 L -140.234,205.993
 L -140.012,205.771 L -139.768,205.573 L -139.505,205.402 L -139.225,205.259 L -138.932,205.147 L -138.629,205.066
 L -138.319,205.016 L -138.005,205 L -133.995,205 L -133.681,205.016 L -133.371,205.066 L -133.068,205.147
 L -132.775,205.259 L -132.495,205.402 L -132.232,205.573 L -131.988,205.771 L -131.766,205.993 L -131.568,206.237
 L -131.397,206.5 L -131.254,206.78 L -131.142,207.073 L -131.061,207.376 L -131.011,207.686 L -130.995,208
 L -130.995,211 L -123.5,211 L -123.5,31 L -131,31 L -131,26 L -141,26
 L -141,31 L -341,31 L -341,26 L -351,26 L -351,31 L -358.5,31
 L -358.5,211 L -351.005,211 z
M -30,125 L -38.3333,100 L -30,75 L -30,65 L -70,65 L -70,75
 L -61.6667,100 L -70,125 L -70,135 L -30,135 z
M -471.005,448 L -470.989,447.686 L -470.939,447.376 L -470.858,447.073 L -470.746,446.78 L -470.603,446.5
 L -470.432,446.237 L -470.234,445.993 L -470.012,445.771 L -469.768,445.573 L -469.505,445.402 L -469.225,445.259
 L -468.932,445.147 L -468.629,445.066 L -468.319,445.016 L -468.005,445 L -463.995,445 L -463.681,445.016
 L -463.371,445.066 L -463.068,445.147 L -462.775,445.259 L -462.495,445.402 L -462.232,445.573 L -461.988,445.771
 L -461.766,445.993 L -461.568,446.237 L -461.397,446.5 L -461.254,446.78 L -461.142,447.073 L -461.061,447.376
 L -461.011,447.686 L -460.995,448 L -460.995,451 L -261.005,451 L -261.005,448 L -260.989,447.686
 L -260.939,447.376 L -260.858,447.073 L -260.746,446.78 L -260.603,446.5 L -260.432,446.237 L -260.234,445.993
 L -260.012,445.771 L -259.768,445.573 L -259.505,445.402 L -259.225,445.259 L -258.932,445.147 L -258.629,445.066
 L -258.319,445.016 L -258.005,445 L -253.995,445 L -253.681,445.016 L -253.371,445.066 L -253.068,445.147
 L -252.775,445.259 L -252.495,445.402 L -252.232,445.573 L -251.988,445.771 L -251.766,445.993 L -251.568,446.237
 L -251.397,446.5 L -251.254,446.78 L -251.142,447.073 L -251.061,447.376 L -251.011,447.686 L -250.995,448
 L -250.995,451 L -231.005,451 L -231.005,448 L -230.989,447.686 L -230.939,447.376 L -230.858,447.073
 L -230.746,446.78 L -230.603,446.5 L -230.432,446.237 L -230.234,445.993 L -230.012,445.771 L -229.768,445.573
 L -229.505,445.402 L -229.225,445.259 L -228.932,445.147 L -228.629,445.066 L -228.319,445.016 L -228.005,445
 L -223.995,445 L -223.681,445.016 L -223.371,445.066 L -223.068,445.147 L -222.775,445.259 L -222.495,445.402
 L -222.232,445.573 L -221.988,445.771 L -221.766,445.993 L -221.568,446.237 L -221.397,446.5 L -221.254,446.78
 L -221.142,447.073 L -221.061,447.376 L -221.011,447.686 L -220.995,448 L -220.995,451 L -21.005,451
 L -21.005,448 L -20.9886,447.686 L -20.9394,447.376 L -20.8582,447.073 L -20.7456,446.78 L -20.6031,446.5
 L -20.4321,446.237 L -20.2344,445.993 L -20.0124,445.771 L -19.7684,445.573 L -19.505,445.402 L -19.2252,445.259
 L -18.9321,445.147 L -18.6287,445.066 L -18.3186,445.016 L -18.005,445 L -13.995,445 L -13.6814,445.016
 L -13.3713,445.066 L -13.0679,445.147 L -12.7748,445.259 L -12.495,445.402 L -12.2316,445.573 L -11.9876,445.771
 L -11.7656,445.993 L -11.5679,446.237 L -11.3969,446.5 L -11.2544,446.78 L -11.1418,447.073 L -11.0606,447.376
 L -11.0114,447.686 L -10.995,448 L -10.995,451 L -3.5,451 L -3.5,271 L -11,271
 L -11,266 L -21,266 L -21,271 L -221,271 L -221,266 L -231,266
 L -231,271 L -251,271 L -251,266 L -261,266 L -261,271 L -461,271
 L -461,266 L -471,266 L -471,271 L -478.5,271 L -478.5,451 L -471.005,451
 z
" stroke="black" fill="lightgray" stroke-width="0.5"/>
</svg>
