<?xml version="1.0" standalone="no"?>
<!DOCTYPE svg PUBLIC "-//W3C//DTD SVG 1.1//EN" "http://www.w3.org/Graphics/SVG/1.1/DTD/svg11.dtd">
<svg width="1248mm" height="760mm" viewBox="-868 -380 1248 760" xmlns="http://www.w3.org/2000/svg" version="1.1">
<title>OpenSCAD Model</title>
<path d="
M 280,-132 L 276.923,-140 L 276.925,-140.005 L 379.995,-140.005 L 379.995,-379.995 L 140.005,-379.995
 L 140.005,-276.927 L 148.001,-280.002 L 152.001,-280.002 L 152.001,-239.998 L 148.001,-239.998 L 140.005,-243.073
 L 140.005,-140.005 L 243.075,-140.005 L 243.077,-140 L 240,-132 L 240,-128 L 280,-128
 z
M 257.5,-270 L 257.5,-280 L 262.5,-280 L 262.5,-270 z
M 240,-257.5 L 240,-262.5 L 250,-262.5 L 250,-257.5 z
M 270,-257.5 L 270,-262.5 L 280,-262.5 L 280,-257.5 z
M 257.5,-240 L 257.5,-250 L 262.5,-250 L 262.5,-240 z
M -240,-132 L -243.077,-140 L -243.075,-140.005 L -140.005,-140.005 L -140.005,-243.075 L -140,-243.077
 L -132,-240 L -128,-240 L -128,-280 L -132,-280 L -140,-276.923 L -140.005,-276.925
 L -140.005,-379.995 L -379.995,-379.995 L -379.995,-140.005 L -276.925,-140.005 L -276.923,-140 L -280,-132
 L -280,-128 L -240,-128 z
M -262.5,-270 L -262.5,-280 L -257.5,-280 L -257.5,-270 z
M -250,-257.5 L -250,-262.5 L -240,-262.5 L -240,-257.5 z
M -280,-257.5 L -280,-262.5 L -270,-262.5 L -270,-257.5 z
M -262.5,-240 L -262.5,-250 L -257.5,-250 L -257.5,-240 z
M 20,-132 L 16.9231,-140 L 16.925,-140.005 L 119.995,-140.005 L 119.995,-243.075 L 120,-243.077
 L 128,-240 L 132,-240 L 132,-280 L 128,-280 L 120,-276.923 L 119.995,-276.925
 L 119.995,-379.995 L -119.995,-379.995 L -119.995,-276.927 L -111.999,-280.002 L -107.999,-280.002 L -107.999,-239.998
 L -111.999,-239.998 L -119.995,-243.073 L -119.995,-140.005 L -16.925,-140.005 L -16.9231,-140 L -20,-132
 L -20,-128 L 20,-128 z
M -2.5,-270 L -2.5,-280 L 2.5,-280 L 2.5,-270 z
M -20,-257.5 L -20,-262.5 L -10,-262.5 L -10,-257.5 z
M 10,-257.5 L 10,-262.5 L 20,-262.5 L 20,-257.5 z
M -2.5,-240 L -2.5,-250 L 2.5,-250 L 2.5,-240 z
M -410.005,-110 L -410.005,-113 L -409.989,-113.314 L -409.939,-113.624 L -409.858,-113.927 L -409.746,-114.22
 L -409.603,-114.5 L -409.432,-114.763 L -409.234,-115.007 L -409.012,-115.229 L -408.768,-115.427 L -408.505,-115.598
 L -408.225,-115.741 L -407.932,-115.853 L -407.629,-115.934 L -407.319,-115.984 L -407.005,-116 L -402.995,-116
 L -402.681,-115.984 L -402.371,-115.934 L -402.068,-115.853 L -401.775,-115.741 L -401.495,-115.598 L -401.232,-115.427
 L -400.988,-115.229 L -400.766,-115.007 L -400.568,-114.763 L -400.397,-114.5 L -400.254,-114.22 L -400.142,-113.927
 L -400.061,-113.624 L -400.011,-113.314 L -399.995,-113 L -399.995,-110 L -392.5,-110 L -392.5,-290
 L -400,-290 L -400,-295 L -410,-295 L -410,-290 L -610,-290 L -610,-295
 L -620,-295 L -620,-290 L -627.5,-290 L -627.5,-110 L -620.005,-110 L -620.005,-113
 L -619.989,-113.314 L -619.939,-113.624 L -619.858,-113.927 L -619.746,-114.22 L -619.603,-114.5 L -619.432,-114.763
 L -619.234,-115.007 L -619.012,-115.229 L -618.768,-115.427 L -618.505,-115.598 L -618.225,-115.741 L -617.932,-115.853
 L -617.629,-115.934 L -617.319,-115.984 L -617.005,-116 L -612.995,-116 L -612.681,-115.984 L -612.371,-115.934
 L -612.068,-115.853 L -611.775,-115.741 L -611.495,-115.598 L -611.232,-115.427 L -610.988,-115.229 L -610.766,-115.007
 L -610.568,-114.763 L -610.397,-114.5 L -610.254,-114.22 L -610.142,-113.927 L -610.061,-113.624 L -610.011,-113.314
 L -609.995,-113 L -609.995,-110 z
M 20,128 L 16.9231,120 L 16.925,119.995 L 119.995,119.995 L 119.995,16.925 L 120,16.9231
 L 128,20 L 132,20 L 132,-20 L 128,-20 L 120,-16.9231 L 119.995,-16.925
 L 119.995,-119.995 L 16.9267,-119.995 L 20.002,-111.999 L 20.002,-107.999 L -20.002,-107.999 L -20.002,-111.999
 L -16.9267,-119.995 L -119.995,-119.995 L -119.995,-16.9267 L -111.999,-20.002 L -107.999,-20.002 L -107.999,20.002
 L -111.999,20.002 L -119.995,16.9267 L -119.995,119.995 L -16.925,119.995 L -16.9231,120 L -20,128
 L -20,132 L 20,132 z
M -2.5,-10 L -2.5,-20 L 2.5,-20 L 2.5,-10 z
M -20,2.5 L -20,-2.5 L -10,-2.5 L -10,2.5 z
M 10,2.5 L 10,-2.5 L 20,-2.5 L 20,2.5 z
M -2.5,20 L -2.5,10 L 2.5,10 L 2.5,20 z
M -240,128 L -243.077,120 L -243.075,119.995 L -140.005,119.995 L -140.005,16.925 L -140,16.9231
 L -132,20 L -128,20 L -128,-20 L -132,-20 L -140,-16.9231 L -140.005,-16.925
 L -140.005,-119.995 L -243.073,-119.995 L -239.998,-111.999 L -239.998,-107.999 L -280.002,-107.999 L -280.002,-111.999
 L -276.927,-119.995 L -379.995,-119.995 L -379.995,119.995 L -276.925,119.995 L -276.923,120 L -280,128
 L -280,132 L -240,132 z
M -262.5,-10 L -262.5,-20 L -257.5,-20 L -257.5,-10 z
M -280,2.5 L -280,-2.5 L -270,-2.5 L -270,2.5 z
M -250,2.5 L -250,-2.5 L -240,-2.5 L -240,2.5 z
M -262.5,20 L -262.5,10 L -257.5,10 L -257.5,20 z
M 280,128 L 276.923,120 L 276.925,119.995 L 379.995,119.995 L 379.995,-119.995 L 276.927,-119.995
 L 280.002,-111.999 L 280.002,-107.999 L 239.998,-107.999 L 239.998,-111.999 L 243.073,-119.995 L 140.005,-119.995
 L 140.005,-16.9267 L 148.001,-20.002 L 152.001,-20.002 L 152.001,20.002 L 148.001,20.002 L 140.005,16.9267
 L 140.005,119.995 L 243.075,119.995 L 243.077,120 L 240,128 L 240,132 L 280,132
 z
M 257.5,-10 L 257.5,-20 L 262.5,-20 L 262.5,-10 z
M 270,2.5 L 270,-2.5 L 280,-2.5 L 280,2.5 z
M 240,2.5 L 240,-2.5 L 250,-2.5 L 250,2.5 z
M 257.5,20 L 257.5,10 L 262.5,10 L 262.5,20 z
M -860.005,287 L -859.989,286.686 L -859.939,286.376 L -859.858,286.073 L -859.746,285.78 L -859.603,285.5
 L -859.432,285.237 L -859.234,284.993 L -859.012,284.771 L -858.768,284.573 L -858.505,284.402 L -858.225,284.259
 L -857.932,284.147 L -857.629,284.066 L -857.319,284.016 L -857.005,284 L -852.995,284 L -852.681,284.016
 L -852.371,284.066 L -852.068,284.147 L -851.775,284.259 L -851.495,284.402 L -851.232,284.573 L -850.988,284.771
 L -850.766,284.993 L -850.568,285.237 L -850.397,285.5 L -850.254,285.78 L -850.142,286.073 L -850.061,286.376
 L -850.011,286.686 L -849.995,287 L -849.995,290 L -650.005,290 L -650.005,287 L -649.989,286.686
 L -649.939,286.376 L -649.858,286.073 L -649.746,285.78 L -649.603,285.5 L -649.432,285.237 L -649.234,284.993
 L -649.012,284.771 L -648.768,284.573 L -648.505,284.402 L -648.225,284.259 L -647.932,284.147 L -647.629,284.066
 L -647.319,284.016 L -647.005,284 L -642.995,284 L -642.681,284.016 L -642.371,284.066 L -642.068,284.147
 L -641.775,284.259 L -641.495,284.402 L -641.232,284.573 L -640.988,284.771 L -640.766,284.993 L -640.568,285.237
 L -640.397,285.5 L -640.254,285.78 L -640.142,286.073 L -640.061,286.376 L -640.011,286.686 L -639.995,287
 L -639.995,290 L -620.005,290 L -620.005,287 L -619.989,286.686 L -619.939,286.376 L -619.858,286.073
 L -619.746,285.78 L -619.603,285.5 L -619.432,285.237 L -619.234,284.993 L -619.012,284.771 L -618.768,284.573
 L -618.505,284.402 L -618.225,284.259 L -617.932,284.147 L -617.629,284.066 L -617.319,284.016 L -617.005,284
 L -612.995,284 L -612.681,284.016 L -612.371,284.066 L -612.068,284.147 L -611.775,284.259 L -611.495,284.402
 L -611.232,284.573 L -610.988,284.771 L -610.766,284.993 L -610.568,285.237 L -610.397,285.5 L -610.254,285.78
 L -610.142,286.073 L -610.061,286.376 L -610.011,286.686 L -609.995,287 L -609.995,290 L -410.005,290
 L -410.005,287 L -409.989,286.686 L -409.939,286.376 L -409.858,286.073 L -409.746,285.78 L -409.603,285.5
 L -409.432,285.237 L -409.234,284.993 L -409.012,284.771 L -408.768,284.573 L -408.505,284.402 L -408.225,284.259
 L -407.932,284.147 L -407.629,284.066 L -407.319,284.016 L -407.005,284 L -402.995,284 L -402.681,284.016
 L -402.371,284.066 L -402.068,284.147 L -401.775,284.259 L -401.495,284.402 L -401.232,284.573 L -400.988,284.771
 L -400.766,284.993 L -400.568,285.237 L -400.397,285.5 L -400.254,285.78 L -400.142,286.073 L -400.061,286.376
 L -400.011,286.686 L -399.995,287 L -399.995,290 L -392.5,290 L -392.5,110 L -400,110
 L -400,105 L -410,105 L -410,110 L -610,110 L -610,105 L -620,105
 L -620,110 L -640,110 L -640,105 L -650,105 L -650,110 L -850,110
 L -850,105 L -860,105 L -860,110 L -867.5,110 L -867.5,290 L -860.005,290
 z
M 119.995,276.925 L 120,276.923 L 128,280 L 132,280 L 132,240 L 128,240
 L 120,243.077 L 119.995,243.075 L 119.995,140.005 L 16.9267,140.005 L 20.002,148.001 L 20.002,152.001
 L -20.002,152.001 L -20.002,148.001 L -16.9267,140.005 L -119.995,140.005 L -119.995,243.073 L -111.999,239.998
 L -107.999,239.998 L -107.999,280.002 L -111.999,280.002 L -119.995,276.927 L -119.995,379.995 L 119.995,379.995
 z
M -2.5,250 L -2.5,240 L 2.5,240 L 2.5,250 z
M -20,262.5 L -20,257.5 L -10,257.5 L -10,262.5 z
M 10,262.5 L 10,257.5 L 20,257.5 L 20,262.5 z
M -2.5,280 L -2.5,270 L 2.5,270 L 2.5,280 z
M 379.995,140.005 L 276.927,140.005 L 280.002,148.001 L 280.002,152.001 L 239.998,152.001 L 239.998,148.001
 L 243.073,140.005 L 140.005,140.005 L 140.005,243.073 L 148.001,239.998 L 152.001,239.998 L 152.001,280.002
 L 148.001,280.002 L 140.005,276.927 L 140.005,379.995 L 379.995,379.995 z
M 257.5,250 L 257.5,240 L 262.5,240 L 262.5,250 z
M 240,262.5 L 240,257.5 L 250,257.5 L 250,262.5 z
M 270,262.5 L 270,257.5 L 280,257.5 L 280,262.5 z
M 257.5,280 L 257.5,270 L 262.5,270 L 262.5,280 z
M -140.005,276.925 L -140,276.923 L -132,280 L -128,280 L -128,240 L -132,240
 L -140,243.077 L -140.005,243.075 L -140.005,140.005 L -243.073,140.005 L -239.998,148.001 L -239.998,152.001
 L -280.002,152.001 L -280.002,148.001 L -276.927,140.005 L -379.995,140.005 L -379.995,379.995 L -140.005,379.995
 z
M -262.5,250 L -262.5,240 L -257.5,240 L -257.5,250 z
M -280,262.5 L -280,257.5 L -270,257.5 L -270,262.5 z
M -250,262.5 L -250,257.5 L -240,257.5 L -240,262.5 z
M -262.5,280 L -262.5,270 L -257.5,270 L -257.5,280 z
" stroke="black" fill="lightgray" stroke-width="0.5"/>
</svg>
