<?xml version="1.0" standalone="no"?>
<!DOCTYPE svg PUBLIC "-//W3C//DTD SVG 1.1//EN" "http://www.w3.org/Graphics/SVG/1.1/DTD/svg11.dtd">
<svg width="1548mm" height="940mm" viewBox="-1078 -470 1548 940" xmlns="http://www.w3.org/2000/svg" version="1.1">
<title>OpenSCAD Model</title>
<path d="
M 20,-162 L 16.9231,-170 L 16.925,-170.005 L 149.995,-170.005 L 149.995,-303.075 L 150,-303.077
 L 158,-300 L 162,-300 L 162,-340 L 158,-340 L 150,-336.923 L 149.995,-336.925
 L 149.995,-469.995 L -149.995,-469.995 L -149.995,-336.927 L -141.999,-340.002 L -137.999,-340.002 L -137.999,-299.998
 L -141.999,-299.998 L -149.995,-303.073 L -149.995,-170.005 L -16.925,-170.005 L -16.9231,-170 L -20,-162
 L -20,-158 L 20,-158 z
M -2.5,-330 L -2.5,-340 L 2.5,-340 L 2.5,-330 z
M 10,-317.5 L 10,-322.5 L 20,-322.5 L 20,-317.5 z
M -20,-317.5 L -20,-322.5 L -10,-322.5 L -10,-317.5 z
M -2.5,-300 L -2.5,-310 L 2.5,-310 L 2.5,-300 z
M 340,-162 L 336.923,-170 L 336.925,-170.005 L 469.995,-170.005 L 469.995,-469.995 L 170.005,-469.995
 L 170.005,-336.927 L 178.001,-340.002 L 182.001,-340.002 L 182.001,-299.998 L 178.001,-299.998 L 170.005,-303.073
 L 170.005,-170.005 L 303.075,-170.005 L 303.077,-170 L 300,-162 L 300,-158 L 340,-158
 z
M 317.5,-330 L 317.5,-340 L 322.5,-340 L 322.5,-330 z
M 330,-317.5 L 330,-322.5 L 340,-322.5 L 340,-317.5 z
M 300,-317.5 L 300,-322.5 L 310,-322.5 L 310,-317.5 z
M 317.5,-300 L 317.5,-310 L 322.5,-310 L 322.5,-300 z
M -300,-162 L -303.077,-170 L -303.075,-170.005 L -170.005,-170.005 L -170.005,-303.075 L -170,-303.077
 L -162,-300 L -158,-300 L -158,-340 L -162,-340 L -170,-336.923 L -170.005,-336.925
 L -170.005,-469.995 L -469.995,-469.995 L -469.995,-170.005 L -336.925,-170.005 L -336.923,-170 L -340,-162
 L -340,-158 L -300,-158 z
M -322.5,-330 L -322.5,-340 L -317.5,-340 L -317.5,-330 z
M -340,-317.5 L -340,-322.5 L -330,-322.5 L -330,-317.5 z
M -310,-317.5 L -310,-322.5 L -300,-322.5 L -300,-317.5 z
M -322.5,-300 L -322.5,-310 L -317.5,-310 L -317.5,-300 z
M -770.005,-158 L -769.989,-158.314 L -769.939,-158.624 L -769.858,-158.927 L -769.746,-159.22 L -769.603,-159.5
 L -769.432,-159.763 L -769.234,-160.007 L -769.012,-160.229 L -768.768,-160.427 L -768.505,-160.598 L -768.225,-160.741
 L -767.932,-160.853 L -767.629,-160.934 L -767.319,-160.984 L -767.005,-161 L -762.995,-161 L -762.681,-160.984
 L -762.371,-160.934 L -762.068,-160.853 L -761.775,-160.741 L -761.495,-160.598 L -761.232,-160.427 L -760.988,-160.229
 L -760.766,-160.007 L -760.568,-159.763 L -760.397,-159.5 L -760.254,-159.22 L -760.142,-158.927 L -760.061,-158.624
 L -760.011,-158.314 L -759.995,-158 L -759.995,-155 L -500.005,-155 L -500.005,-158 L -499.989,-158.314
 L -499.939,-158.624 L -499.858,-158.927 L -499.746,-159.22 L -499.603,-159.5 L -499.432,-159.763 L -499.234,-160.007
 L -499.012,-160.229 L -498.768,-160.427 L -498.505,-160.598 L -498.225,-160.741 L -497.932,-160.853 L -497.629,-160.934
 L -497.319,-160.984 L -497.005,-161 L -492.995,-161 L -492.681,-160.984 L -492.371,-160.934 L -492.068,-160.853
 L -491.775,-160.741 L -491.495,-160.598 L -491.232,-160.427 L -490.988,-160.229 L -490.766,-160.007 L -490.568,-159.763
 L -490.397,-159.5 L -490.254,-159.22 L -490.142,-158.927 L -490.061,-158.624 L -490.011,-158.314 L -489.995,-158
 L -489.995,-155 L -482.5,-155 L -482.5,-335 L -490,-335 L -490,-340 L -500,-340
 L -500,-335 L -760,-335 L -760,-340 L -770,-340 L -770,-335 L -777.5,-335
 L -777.5,-155 L -770.005,-155 z
M 20,158 L 16.9231,150 L 16.925,149.995 L 149.995,149.995 L 149.995,16.925 L 150,16.9231
 L 158,20 L 162,20 L 162,-20 L 158,-20 L 150,-16.9231 L 149.995,-16.925
 L 149.995,-149.995 L 16.9267,-149.995 L 20.002,-141.999 L 20.002,-137.999 L -20.002,-137.999 L -20.002,-141.999
 L -16.9267,-149.995 L -149.995,-149.995 L -149.995,-16.9267 L -141.999,-20.002 L -137.999,-20.002 L -137.999,20.002
 L -141.999,20.002 L -149.995,16.9267 L -149.995,149.995 L -16.925,149.995 L -16.9231,150 L -20,158
 L -20,162 L 20,162 z
M -2.5,-10 L -2.5,-20 L 2.5,-20 L 2.5,-10 z
M -20,2.5 L -20,-2.5 L -10,-2.5 L -10,2.5 z
M 10,2.5 L 10,-2.5 L 20,-2.5 L 20,2.5 z
M -2.5,20 L -2.5,10 L 2.5,10 L 2.5,20 z
M 340,158 L 336.923,150 L 336.925,149.995 L 469.995,149.995 L 469.995,-149.995 L 336.927,-149.995
 L 340.002,-141.999 L 340.002,-137.999 L 299.998,-137.999 L 299.998,-141.999 L 303.073,-149.995 L 170.005,-149.995
 L 170.005,-16.9267 L 178.001,-20.002 L 182.001,-20.002 L 182.001,20.002 L 178.001,20.002 L 170.005,16.9267
 L 170.005,149.995 L 303.075,149.995 L 303.077,150 L 300,158 L 300,162 L 340,162
 z
M 317.5,-10 L 317.5,-20 L 322.5,-20 L 322.5,-10 z
M 300,2.5 L 300,-2.5 L 310,-2.5 L 310,2.5 z
M 330,2.5 L 330,-2.5 L 340,-2.5 L 340,2.5 z
M 317.5,20 L 317.5,10 L 322.5,10 L 322.5,20 z
M -300,158 L -303.077,150 L -303.075,149.995 L -170.005,149.995 L -170.005,16.925 L -170,16.9231
 L -162,20 L -158,20 L -158,-20 L -162,-20 L -170,-16.9231 L -170.005,-16.925
 L -170.005,-149.995 L -303.073,-149.995 L -299.998,-141.999 L -299.998,-137.999 L -340.002,-137.999 L -340.002,-141.999
 L -336.927,-149.995 L -469.995,-149.995 L -469.995,149.995 L -336.925,149.995 L -336.923,150 L -340,158
 L -340,162 L -300,162 z
M -322.5,-10 L -322.5,-20 L -317.5,-20 L -317.5,-10 z
M -340,2.5 L -340,-2.5 L -330,-2.5 L -330,2.5 z
M -310,2.5 L -310,-2.5 L -300,-2.5 L -300,2.5 z
M -322.5,20 L -322.5,10 L -317.5,10 L -317.5,20 z
M -1070.01,332 L -1069.99,331.686 L -1069.94,331.376 L -1069.86,331.073 L -1069.75,330.78 L -1069.6,330.5
 L -1069.43,330.237 L -1069.23,329.993 L -1069.01,329.771 L -1068.77,329.573 L -1068.51,329.402 L -1068.23,329.259
 L -1067.93,329.147 L -1067.63,329.066 L -1067.32,329.016 L -1067.01,329 L -1062.99,329 L -1062.68,329.016
 L -1062.37,329.066 L -1062.07,329.147 L -1061.77,329.259 L -1061.49,329.402 L -1061.23,329.573 L -1060.99,329.771
 L -1060.77,329.993 L -1060.57,330.237 L -1060.4,330.5 L -1060.25,330.78 L -1060.14,331.073 L -1060.06,331.376
 L -1060.01,331.686 L -1059.99,332 L -1059.99,335 L -800.005,335 L -800.005,332 L -799.989,331.686
 L -799.939,331.376 L -799.858,331.073 L -799.746,330.78 L -799.603,330.5 L -799.432,330.237 L -799.234,329.993
 L -799.012,329.771 L -798.768,329.573 L -798.505,329.402 L -798.225,329.259 L -797.932,329.147 L -797.629,329.066
 L -797.319,329.016 L -797.005,329 L -792.995,329 L -792.681,329.016 L -792.371,329.066 L -792.068,329.147
 L -791.775,329.259 L -791.495,329.402 L -791.232,329.573 L -790.988,329.771 L -790.766,329.993 L -790.568,330.237
 L -790.397,330.5 L -790.254,330.78 L -790.142,331.073 L -790.061,331.376 L -790.011,331.686 L -789.995,332
 L -789.995,335 L -770.005,335 L -770.005,332 L -769.989,331.686 L -769.939,331.376 L -769.858,331.073
 L -769.746,330.78 L -769.603,330.5 L -769.432,330.237 L -769.234,329.993 L -769.012,329.771 L -768.768,329.573
 L -768.505,329.402 L -768.225,329.259 L -767.932,329.147 L -767.629,329.066 L -767.319,329.016 L -767.005,329
 L -762.995,329 L -762.681,329.016 L -762.371,329.066 L -762.068,329.147 L -761.775,329.259 L -761.495,329.402
 L -761.232,329.573 L -760.988,329.771 L -760.766,329.993 L -760.568,330.237 L -760.397,330.5 L -760.254,330.78
 L -760.142,331.073 L -760.061,331.376 L -760.011,331.686 L -759.995,332 L -759.995,335 L -500.005,335
 L -500.005,332 L -499.989,331.686 L -499.939,331.376 L -499.858,331.073 L -499.746,330.78 L -499.603,330.5
 L -499.432,330.237 L -499.234,329.993 L -499.012,329.771 L -498.768,329.573 L -498.505,329.402 L -498.225,329.259
 L -497.932,329.147 L -497.629,329.066 L -497.319,329.016 L -497.005,329 L -492.995,329 L -492.681,329.016
 L -492.371,329.066 L -492.068,329.147 L -491.775,329.259 L -491.495,329.402 L -491.232,329.573 L -490.988,329.771
 L -490.766,329.993 L -490.568,330.237 L -490.397,330.5 L -490.254,330.78 L -490.142,331.073 L -490.061,331.376
 L -490.011,331.686 L -489.995,332 L -489.995,335 L -482.5,335 L -482.5,155 L -490,155
 L -490,150 L -500,150 L -500,155 L -760,155 L -760,150 L -770,150
 L -770,155 L -790,155 L -790,150 L -800,150 L -800,155 L -1060,155
 L -1060,150 L -1070,150 L -1070,155 L -1077.5,155 L -1077.5,335 L -1070.01,335
 z
M -170.005,336.925 L -170,336.923 L -162,340 L -158,340 L -158,300 L -162,300
 L -170,303.077 L -170.005,303.075 L -170.005,170.005 L -303.073,170.005 L -299.998,178.001 L -299.998,182.001
 L -340.002,182.001 L -340.002,178.001 L -336.927,170.005 L -469.995,170.005 L -469.995,469.995 L -170.005,469.995
 z
M -322.5,310 L -322.5,300 L -317.5,300 L -317.5,310 z
M -340,322.5 L -340,317.5 L -330,317.5 L -330,322.5 z
M -310,322.5 L -310,317.5 L -300,317.5 L -300,322.5 z
M -322.5,340 L -322.5,330 L -317.5,330 L -317.5,340 z
M 149.995,336.925 L 150,336.923 L 158,340 L 162,340 L 162,300 L 158,300
 L 150,303.077 L 149.995,303.075 L 149.995,170.005 L 16.9267,170.005 L 20.002,178.001 L 20.002,182.001
 L -20.002,182.001 L -20.002,178.001 L -16.9267,170.005 L -149.995,170.005 L -149.995,303.073 L -141.999,299.998
 L -137.999,299.998 L -137.999,340.002 L -141.999,340.002 L -149.995,336.927 L -149.995,469.995 L 149.995,469.995
 z
M -2.5,310 L -2.5,300 L 2.5,300 L 2.5,310 z
M -20,322.5 L -20,317.5 L -10,317.5 L -10,322.5 z
M 10,322.5 L 10,317.5 L 20,317.5 L 20,322.5 z
M -2.5,340 L -2.5,330 L 2.5,330 L 2.5,340 z
M 469.995,170.005 L 336.927,170.005 L 340.002,178.001 L 340.002,182.001 L 299.998,182.001 L 299.998,178.001
 L 303.073,170.005 L 170.005,170.005 L 170.005,303.073 L 178.001,299.998 L 182.001,299.998 L 182.001,340.002
 L 178.001,340.002 L 170.005,336.927 L 170.005,469.995 L 469.995,469.995 z
M 317.5,310 L 317.5,300 L 322.5,300 L 322.5,310 z
M 300,322.5 L 300,317.5 L 310,317.5 L 310,322.5 z
M 330,322.5 L 330,317.5 L 340,317.5 L 340,322.5 z
M 317.5,340 L 317.5,330 L 322.5,330 L 322.5,340 z
" stroke="black" fill="lightgray" stroke-width="0.5"/>
</svg>
